<?xml version="1.0" encoding="UTF-8"?>
<svg xmlns="http://www.w3.org/2000/svg" xmlns:xlink="http://www.w3.org/1999/xlink" viewBox="0 0 384 384" width="384px" height="384px">
<g id="surface15530085">
<path style=" stroke:none;fill-rule:nonzero;fill:rgb(40.000001%,40.000001%,40.000001%);fill-opacity:1;" d="M 120 16 C 117.953125 16 115.902344 16.785156 114.34375 18.34375 C 111.222656 21.464844 111.222656 26.535156 114.34375 29.65625 L 135.3125 50.625 C 111.503906 68.09375 96 96.203125 96 128 L 288 128 C 288 96.203125 272.496094 68.09375 248.6875 50.625 L 269.65625 29.65625 C 272.777344 26.519531 272.777344 21.480469 269.65625 18.34375 C 266.535156 15.222656 261.464844 15.222656 258.34375 18.34375 L 234.625 42.0625 C 221.769531 35.671875 207.332031 32 192 32 C 176.667969 32 162.230469 35.671875 149.375 42.0625 L 125.65625 18.34375 C 124.097656 16.785156 122.046875 16 120 16 Z M 144 80 L 160 80 L 160 96 L 144 96 Z M 224 80 L 240 80 L 240 96 L 224 96 Z M 48 144 L 48 272 L 80 272 L 80 144 Z M 96 144 L 96 272 C 96 280.832031 103.167969 288 112 288 L 128 288 L 128 368 L 176 368 L 176 288 L 208 288 L 208 368 L 256 368 L 256 288 L 272 288 C 280.832031 288 288 280.832031 288 272 L 288 144 Z M 304 144 L 304 272 L 336 272 L 336 144 Z M 304 144 "/>
</g>
</svg>
