<?xml version="1.0" encoding="UTF-8"?>
<svg xmlns="http://www.w3.org/2000/svg" xmlns:xlink="http://www.w3.org/1999/xlink" viewBox="0 0 500 500" width="500px" height="500px">
<g id="surface16068334">
<path style=" stroke:none;fill-rule:nonzero;fill:rgb(40.000001%,40.000001%,40.000001%);fill-opacity:1;" d="M 195.097656 43.144531 C 95.886719 59.84375 20 146.121094 20 250 C 20 353.878906 95.886719 440.15625 195.097656 456.855469 C 110.558594 426.15625 50 345.019531 50 250 C 50 154.980469 110.558594 73.84375 195.097656 43.144531 Z M 270 50 C 176.839844 50 98.792969 113.789062 76.5625 200 L 463.457031 200 C 441.21875 113.789062 363.160156 50 270 50 Z M 72.480469 220 C 71.492188 226.570312 70.847656 233.238281 70.507812 240 L 469.492188 240 C 469.152344 233.238281 468.519531 226.570312 467.519531 220 Z M 70.507812 260 C 70.847656 266.761719 71.492188 273.429688 72.480469 280 L 467.519531 280 C 468.507812 273.429688 469.152344 266.761719 469.492188 260 Z M 76.5625 300 C 98.792969 386.210938 176.839844 450 270 450 C 363.160156 450 441.207031 386.210938 463.4375 300 Z M 76.5625 300 "/>
</g>
</svg>
