<?xml version="1.0" encoding="UTF-8"?>
<svg xmlns="http://www.w3.org/2000/svg" xmlns:xlink="http://www.w3.org/1999/xlink" viewBox="0 0 1200 1200" width="1200px" height="1200px">
<g id="surface41216357">
<path style=" stroke:none;fill-rule:nonzero;fill:rgb(33.725491%,33.725491%,33.725491%);fill-opacity:1;" d="M 600 105 C 326.777344 105 105 326.777344 105 600 C 105 873.222656 326.777344 1095 600 1095 C 873.222656 1095 1095 873.222656 1095 600 C 1095 326.777344 873.222656 105 600 105 Z M 600 135 C 856.992188 135 1065 343.007812 1065 600 C 1065 856.992188 856.992188 1065 600 1065 C 343.007812 1065 135 856.992188 135 600 C 135 343.007812 343.007812 135 600 135 Z M 600 180 C 591.738281 180 585 186.738281 585 195 C 585 203.261719 591.738281 210 600 210 C 608.261719 210 615 203.261719 615 195 C 615 186.738281 608.261719 180 600 180 Z M 679.394531 187.734375 C 672.070312 187.558594 665.742188 192.65625 664.277344 199.863281 C 662.695312 207.949219 667.96875 215.859375 676.113281 217.5 C 684.199219 219.082031 692.109375 213.808594 693.75 205.722656 C 695.332031 197.578125 690.058594 189.667969 681.972656 188.027344 C 681.09375 187.910156 680.273438 187.792969 679.394531 187.734375 Z M 521.074219 187.792969 C 520.078125 187.792969 519.082031 187.851562 518.085938 188.027344 C 509.941406 189.667969 504.667969 197.578125 506.308594 205.722656 C 507.070312 209.589844 509.355469 213.046875 512.695312 215.273438 C 515.976562 217.441406 520.019531 218.261719 523.945312 217.5 C 532.089844 215.859375 537.363281 208.007812 535.722656 199.863281 C 534.316406 192.890625 528.222656 187.851562 521.074219 187.792969 Z M 445.136719 210.820312 C 443.144531 210.820312 441.152344 211.171875 439.277344 211.933594 C 431.601562 215.15625 427.96875 223.886719 431.191406 231.5625 C 434.355469 239.238281 443.085938 242.871094 450.761719 239.707031 C 458.4375 236.484375 462.070312 227.753906 458.90625 220.078125 C 456.5625 214.511719 451.171875 210.878906 445.136719 210.820312 Z M 755.332031 210.820312 C 749.121094 210.703125 743.496094 214.335938 741.09375 220.078125 C 737.929688 227.753906 741.5625 236.484375 749.238281 239.707031 C 756.914062 242.871094 765.644531 239.238281 768.808594 231.5625 C 772.03125 223.886719 768.398438 215.15625 760.722656 211.933594 C 759.023438 211.230469 757.148438 210.878906 755.332031 210.820312 Z M 375.175781 248.203125 C 372.128906 248.203125 369.140625 249.082031 366.621094 250.78125 C 359.765625 255.351562 357.890625 264.667969 362.519531 271.582031 C 367.089844 278.4375 376.40625 280.3125 383.320312 275.683594 C 390.234375 271.113281 392.050781 261.796875 387.480469 254.941406 C 384.726562 250.78125 380.097656 248.261719 375.175781 248.203125 Z M 825.234375 248.203125 C 820.136719 248.144531 815.332031 250.664062 812.519531 254.941406 C 807.890625 261.796875 809.765625 271.113281 816.621094 275.683594 C 823.535156 280.3125 832.851562 278.4375 837.421875 271.582031 C 839.648438 268.300781 840.46875 264.199219 839.707031 260.332031 C 838.945312 256.40625 836.660156 252.949219 833.320312 250.78125 C 830.917969 249.140625 828.164062 248.261719 825.234375 248.203125 Z M 313.828125 298.59375 C 309.785156 298.59375 305.859375 300.175781 303.046875 303.046875 C 297.1875 308.847656 297.1875 318.398438 303.046875 324.199219 C 308.847656 330.058594 318.398438 330.058594 324.199219 324.199219 C 330.058594 318.398438 330.058594 308.847656 324.199219 303.046875 C 321.445312 300.234375 317.753906 298.652344 313.828125 298.59375 Z M 886.582031 298.59375 C 882.539062 298.59375 878.613281 300.175781 875.800781 303.046875 C 869.941406 308.847656 869.941406 318.398438 875.800781 324.199219 C 881.601562 330.058594 891.152344 330.058594 896.953125 324.199219 C 902.8125 318.398438 902.8125 308.847656 896.953125 303.046875 C 894.199219 300.234375 890.507812 298.652344 886.582031 298.59375 Z M 936.914062 360 C 933.867188 359.941406 930.9375 360.820312 928.417969 362.519531 C 921.5625 367.089844 919.6875 376.40625 924.316406 383.261719 C 928.886719 390.175781 938.203125 392.050781 945.058594 387.421875 C 951.972656 382.792969 953.847656 373.535156 949.21875 366.621094 C 946.464844 362.519531 941.835938 360 936.914062 360 Z M 263.496094 360 C 258.398438 359.882812 253.59375 362.402344 250.78125 366.621094 C 246.210938 373.535156 248.027344 382.851562 254.941406 387.421875 C 261.855469 392.050781 271.113281 390.175781 275.742188 383.320312 C 280.3125 376.40625 278.496094 367.089844 271.582031 362.519531 C 269.179688 360.9375 266.425781 360.058594 263.496094 360 Z M 974.296875 430.019531 C 972.304688 429.960938 970.3125 430.371094 968.4375 431.132812 C 960.761719 434.296875 957.128906 443.085938 960.292969 450.703125 C 963.515625 458.378906 972.246094 462.011719 979.921875 458.847656 C 987.597656 455.683594 991.230469 446.894531 988.066406 439.21875 C 985.722656 433.710938 980.332031 430.019531 974.296875 430.019531 Z M 226.171875 430.019531 C 219.960938 429.902344 214.335938 433.535156 211.992188 439.277344 C 208.828125 446.953125 212.460938 455.683594 220.078125 458.90625 C 227.753906 462.070312 236.542969 458.4375 239.707031 450.761719 C 242.871094 443.085938 239.238281 434.355469 231.5625 431.191406 C 229.863281 430.429688 228.046875 430.078125 226.171875 430.019531 Z M 997.265625 506.015625 C 996.269531 505.957031 995.273438 506.074219 994.277344 506.25 C 986.191406 507.890625 980.917969 515.800781 982.5 523.886719 C 984.140625 532.03125 992.050781 537.304688 1000.136719 535.722656 C 1008.28125 534.082031 1013.554688 526.171875 1011.972656 518.027344 C 1010.566406 511.054688 1004.414062 506.015625 997.265625 506.015625 Z M 203.203125 506.015625 C 195.878906 505.839844 189.550781 510.878906 188.085938 518.027344 C 187.324219 521.953125 188.085938 526.054688 190.3125 529.335938 C 192.539062 532.675781 195.996094 534.960938 199.921875 535.722656 C 203.789062 536.484375 207.832031 535.664062 211.171875 533.496094 C 214.453125 531.269531 216.738281 527.8125 217.5 523.886719 C 219.140625 515.800781 213.867188 507.890625 205.78125 506.25 C 204.902344 506.132812 204.082031 506.015625 203.203125 506.015625 Z M 195 585 C 186.738281 585 180 591.738281 180 600 C 180 608.261719 186.738281 615 195 615 C 203.261719 615 210 608.261719 210 600 C 210 591.738281 203.261719 585 195 585 Z M 1005 585 C 996.738281 585 990 591.738281 990 600 C 990 608.261719 996.738281 615 1005 615 C 1013.261719 615 1020 608.261719 1020 600 C 1020 591.738281 1013.261719 585 1005 585 Z M 202.851562 663.984375 C 201.855469 663.984375 200.859375 664.101562 199.863281 664.277344 C 191.71875 665.917969 186.445312 673.828125 188.085938 681.972656 C 189.726562 690.058594 197.578125 695.332031 205.722656 693.75 C 213.867188 692.109375 219.140625 684.199219 217.5 676.113281 C 216.09375 669.082031 210 664.042969 202.851562 663.984375 Z M 997.617188 663.984375 C 990.292969 663.808594 983.964844 668.90625 982.5 676.113281 C 980.917969 684.199219 986.191406 692.109375 994.277344 693.75 C 1002.421875 695.332031 1010.332031 690.058594 1011.972656 681.972656 C 1013.554688 673.828125 1008.28125 665.917969 1000.136719 664.277344 C 999.316406 664.160156 998.496094 664.042969 997.617188 663.984375 Z M 974.53125 739.921875 C 968.320312 739.804688 962.695312 743.496094 960.292969 749.238281 C 957.128906 756.855469 960.761719 765.644531 968.4375 768.808594 C 976.113281 771.972656 984.84375 768.339844 988.066406 760.722656 C 991.230469 753.046875 987.597656 744.257812 979.921875 741.09375 C 978.222656 740.390625 976.347656 739.980469 974.53125 739.921875 Z M 225.9375 739.980469 C 223.945312 739.980469 221.953125 740.332031 220.078125 741.09375 C 216.445312 742.617188 213.515625 745.546875 211.992188 749.238281 C 210.46875 752.929688 210.46875 757.03125 211.933594 760.722656 C 215.15625 768.398438 223.886719 772.03125 231.5625 768.808594 C 235.253906 767.34375 238.183594 764.414062 239.707031 760.722656 C 241.230469 757.03125 241.230469 752.929688 239.707031 749.238281 C 237.421875 743.671875 231.972656 740.039062 225.9375 739.980469 Z M 937.03125 810 C 931.933594 809.882812 927.128906 812.402344 924.316406 816.621094 C 919.6875 823.535156 921.5625 832.792969 928.417969 837.421875 C 931.699219 839.648438 935.800781 840.46875 939.667969 839.648438 C 943.59375 838.886719 947.050781 836.601562 949.21875 833.261719 C 953.847656 826.40625 951.972656 817.089844 945.058594 812.519531 C 942.714844 810.878906 939.902344 810 937.03125 810 Z M 263.4375 810 C 260.390625 809.941406 257.460938 810.820312 254.941406 812.519531 C 248.085938 817.148438 246.210938 826.40625 250.78125 833.320312 C 255.410156 840.175781 264.726562 842.050781 271.640625 837.421875 C 278.496094 832.851562 280.371094 823.535156 275.742188 816.621094 C 272.988281 812.519531 268.359375 810.058594 263.4375 810 Z M 313.828125 871.40625 C 309.785156 871.347656 305.859375 872.929688 303.046875 875.800781 C 297.1875 881.601562 297.1875 891.152344 303.046875 896.953125 C 308.847656 902.8125 318.398438 902.8125 324.199219 896.953125 C 330.058594 891.152344 330.058594 881.601562 324.199219 875.800781 C 321.445312 872.988281 317.753906 871.40625 313.828125 871.40625 Z M 886.582031 871.40625 C 882.539062 871.347656 878.613281 872.929688 875.800781 875.800781 C 869.941406 881.601562 869.941406 891.152344 875.800781 896.953125 C 881.601562 902.8125 891.152344 902.8125 896.953125 896.953125 C 902.8125 891.152344 902.8125 881.601562 896.953125 875.800781 C 894.199219 872.988281 890.507812 871.40625 886.582031 871.40625 Z M 375.292969 921.738281 C 370.195312 921.621094 365.390625 924.140625 362.578125 928.359375 C 357.949219 935.273438 359.824219 944.589844 366.738281 949.21875 C 373.59375 953.789062 382.910156 951.914062 387.480469 945.058594 C 392.109375 938.144531 390.234375 928.886719 383.378906 924.257812 C 380.976562 922.675781 378.164062 921.738281 375.292969 921.738281 Z M 825.175781 921.738281 C 822.128906 921.679688 819.199219 922.558594 816.679688 924.199219 C 813.339844 926.425781 811.054688 929.882812 810.292969 933.808594 C 809.53125 937.675781 810.351562 941.777344 812.578125 945.058594 C 817.148438 951.914062 826.464844 953.789062 833.378906 949.21875 C 840.234375 944.589844 842.109375 935.273438 837.480469 928.359375 C 834.785156 924.257812 830.15625 921.738281 825.175781 921.738281 Z M 445.371094 959.121094 C 439.160156 959.003906 433.535156 962.695312 431.191406 968.4375 C 428.027344 976.054688 431.660156 984.84375 439.277344 988.007812 C 446.953125 991.171875 455.742188 987.539062 458.90625 979.921875 C 462.070312 972.246094 458.4375 963.457031 450.761719 960.292969 C 449.0625 959.589844 447.246094 959.179688 445.371094 959.121094 Z M 755.097656 959.121094 C 753.105469 959.121094 751.113281 959.53125 749.296875 960.292969 C 745.605469 961.816406 742.675781 964.746094 741.152344 968.378906 C 739.628906 972.070312 739.628906 976.230469 741.09375 979.921875 C 744.316406 987.539062 753.046875 991.171875 760.722656 988.007812 C 764.414062 986.484375 767.34375 983.554688 768.867188 979.921875 C 770.390625 976.230469 770.390625 972.070312 768.867188 968.4375 C 766.582031 962.8125 761.132812 959.179688 755.097656 959.121094 Z M 521.425781 982.207031 C 514.101562 982.03125 507.714844 987.128906 506.308594 994.277344 C 504.667969 1002.421875 509.941406 1010.273438 518.085938 1011.914062 C 526.230469 1013.554688 534.082031 1008.28125 535.722656 1000.136719 C 537.363281 991.992188 532.089844 984.140625 523.945312 982.5 C 523.125 982.324219 522.246094 982.207031 521.425781 982.207031 Z M 679.042969 982.265625 C 678.046875 982.207031 677.050781 982.324219 676.113281 982.5 C 667.96875 984.140625 662.695312 991.992188 664.277344 1000.136719 C 665.097656 1004.0625 667.382812 1007.460938 670.664062 1009.6875 C 674.003906 1011.914062 678.046875 1012.734375 681.972656 1011.972656 C 685.839844 1011.152344 689.296875 1008.867188 691.523438 1005.585938 C 693.691406 1002.246094 694.511719 998.203125 693.75 994.277344 C 692.34375 987.304688 686.191406 982.265625 679.042969 982.265625 Z M 600 990 C 591.738281 990 585 996.738281 585 1005 C 585 1013.261719 591.738281 1020 600 1020 C 608.261719 1020 615 1013.261719 615 1005 C 615 996.738281 608.261719 990 600 990 Z M 600 990 "/>
<path style=" stroke:none;fill-rule:nonzero;fill:rgb(33.725491%,33.725491%,33.725491%);fill-opacity:1;" d="M 290.128906 531.664062 L 327.175781 531.664062 L 328.429688 548.6875 C 338.941406 535.523438 353.058594 528.941406 370.777344 528.941406 C 386.40625 528.941406 398.035156 533.523438 405.664062 542.6875 C 413.289062 551.847656 417.199219 565.570312 417.382812 583.847656 L 417.382812 679.082031 L 378.035156 679.082031 L 378.035156 584.753906 C 378.035156 576.429688 376.222656 570.382812 372.59375 566.617188 C 368.964844 562.847656 362.917969 560.964844 354.453125 560.964844 C 343.382812 560.964844 335.082031 565.6875 329.546875 575.128906 L 329.546875 679.082031 L 290.128906 679.082031 Z M 572.476562 679.082031 L 532.710938 679.082031 C 530.894531 675.546875 529.570312 671.152344 528.734375 665.894531 C 519.199219 676.5 506.800781 681.800781 491.546875 681.800781 C 477.082031 681.800781 465.105469 677.617188 455.617188 669.246094 C 446.128906 660.917969 441.382812 650.382812 441.382812 637.640625 C 441.382812 622.011719 447.175781 610.035156 458.753906 601.710938 C 470.335938 593.335938 487.082031 589.105469 508.988281 589.011719 L 527.128906 589.011719 L 527.128906 580.570312 C 527.128906 573.734375 525.359375 568.289062 521.824219 564.246094 C 518.335938 560.152344 512.824219 558.105469 505.289062 558.105469 C 498.640625 558.105469 493.429688 559.6875 489.664062 562.847656 C 485.894531 566.011719 484.011719 570.359375 484.011719 575.894531 L 444.664062 575.894531 C 444.664062 567.382812 447.289062 559.5 452.546875 552.246094 C 457.800781 544.941406 465.265625 539.246094 474.941406 535.152344 C 484.570312 531.011719 495.359375 528.941406 507.3125 528.941406 C 525.5 528.941406 539.917969 533.5 550.570312 542.617188 C 561.265625 551.734375 566.617188 564.570312 566.617188 581.128906 L 566.617188 645.035156 C 566.710938 659.035156 568.664062 669.617188 572.476562 676.777344 Z M 500.128906 651.664062 C 505.941406 651.664062 511.289062 650.382812 516.175781 647.824219 C 521.105469 645.222656 524.753906 641.734375 527.128906 637.359375 L 527.128906 612.035156 L 512.40625 612.035156 C 492.6875 612.035156 482.175781 618.847656 480.871094 632.476562 L 480.800781 634.777344 C 480.800781 639.710938 482.523438 643.753906 485.964844 646.917969 C 489.40625 650.082031 494.128906 651.664062 500.128906 651.664062 Z M 599.058594 531.664062 L 638.546875 531.664062 L 638.546875 687.105469 C 638.546875 703.382812 634.246094 716.035156 625.640625 725.058594 C 616.988281 734.128906 604.546875 738.664062 588.3125 738.664062 C 581.476562 738.664062 574.964844 737.871094 568.777344 736.289062 L 568.777344 705.105469 C 573.523438 705.941406 577.664062 706.359375 581.199219 706.359375 C 593.105469 706.359375 599.058594 700.035156 599.058594 687.382812 Z M 595.917969 493.5 C 595.917969 487.59375 597.894531 482.734375 601.847656 478.917969 C 605.800781 475.105469 611.175781 473.199219 617.964844 473.199219 C 624.800781 473.199219 630.199219 475.105469 634.152344 478.917969 C 638.105469 482.734375 640.082031 487.59375 640.082031 493.5 C 640.082031 499.5 638.058594 504.40625 634.011719 508.222656 C 629.964844 512.035156 624.617188 513.941406 617.964844 513.941406 C 611.359375 513.941406 606.035156 512.035156 601.988281 508.222656 C 597.941406 504.40625 595.917969 499.5 595.917969 493.5 Z M 671.128906 605.617188 L 671.128906 598.429688 C 671.128906 577.59375 673.894531 557.777344 679.429688 538.988281 C 684.964844 520.199219 693.152344 503.546875 703.988281 489.035156 C 714.777344 474.570312 726.5 464.523438 739.152344 458.894531 L 746.753906 480.105469 C 733.5 489.917969 723.152344 505.105469 715.710938 525.664062 C 708.265625 546.175781 704.546875 570.152344 704.546875 597.59375 L 704.546875 601.847656 C 704.546875 629.335938 708.222656 653.40625 715.570312 674.058594 C 722.917969 694.664062 733.3125 710.058594 746.753906 720.246094 L 739.152344 741.105469 C 726.777344 735.570312 715.265625 725.777344 704.617188 711.734375 C 693.917969 697.6875 685.753906 681.476562 680.128906 663.105469 C 674.5 644.777344 671.5 625.617188 671.128906 605.617188 Z M 835.222656 595.429688 L 835.222656 601.570312 C 835.222656 622.082031 832.265625 641.824219 826.359375 660.800781 C 820.453125 679.777344 811.941406 696.546875 800.824219 711.105469 C 789.753906 725.617188 777.917969 735.617188 765.3125 741.105469 L 757.640625 720.246094 C 770.570312 710.523438 780.753906 695.523438 788.199219 675.246094 C 795.640625 655.011719 799.5 631.710938 799.777344 605.335938 L 799.777344 598.152344 C 799.777344 570.988281 796.082031 547.058594 788.6875 526.359375 C 781.246094 505.617188 770.894531 490.082031 757.640625 479.753906 L 765.3125 458.894531 C 777.640625 464.246094 789.289062 473.964844 800.265625 488.058594 C 811.199219 502.105469 819.6875 518.5 825.734375 537.246094 C 831.777344 555.941406 834.941406 575.335938 835.222656 595.429688 Z M 865.289062 548.128906 C 865.289062 541.847656 867.40625 536.753906 871.640625 532.847656 C 875.871094 528.941406 881.175781 526.988281 887.546875 526.988281 C 893.964844 526.988281 899.289062 528.941406 903.523438 532.847656 C 907.753906 536.753906 909.871094 541.847656 909.871094 548.128906 C 909.871094 554.3125 907.777344 559.335938 903.59375 563.199219 C 899.40625 567.058594 894.058594 568.988281 887.546875 568.988281 C 881.082031 568.988281 875.753906 567.058594 871.570312 563.199219 C 867.382812 559.335938 865.289062 554.3125 865.289062 548.128906 Z M 878.964844 728.824219 L 858.382812 718.082031 L 863.265625 709.222656 C 869.359375 698.105469 872.5 687.058594 872.6875 676.082031 L 872.6875 645.59375 L 905.894531 645.59375 L 905.753906 672.800781 C 905.664062 682.894531 903.128906 693.082031 898.152344 703.359375 C 893.175781 713.59375 886.777344 722.082031 878.964844 728.824219 Z M 878.964844 728.824219 "/>
</g>
</svg>
