<?xml version="1.0" encoding="UTF-8"?>
<svg xmlns="http://www.w3.org/2000/svg" xmlns:xlink="http://www.w3.org/1999/xlink" viewBox="0 0 1200 1200" width="1200px" height="1200px">
<g id="surface41039619">
<path style=" stroke:none;fill-rule:nonzero;fill:rgb(100%,100%,100%);fill-opacity:1;" d="M 600 105 C 326.777344 105 105 326.777344 105 600 C 105 873.222656 326.777344 1095 600 1095 C 873.222656 1095 1095 873.222656 1095 600 C 1095 326.777344 873.222656 105 600 105 Z M 600 135 C 856.992188 135 1065 343.007812 1065 600 C 1065 856.992188 856.992188 1065 600 1065 C 343.007812 1065 135 856.992188 135 600 C 135 343.007812 343.007812 135 600 135 Z M 600 180 C 591.738281 180 585 186.738281 585 195 C 585 203.261719 591.738281 210 600 210 C 608.261719 210 615 203.261719 615 195 C 615 186.738281 608.261719 180 600 180 Z M 679.394531 187.734375 C 672.070312 187.558594 665.742188 192.65625 664.277344 199.863281 C 662.695312 207.949219 667.96875 215.859375 676.113281 217.5 C 684.199219 219.082031 692.109375 213.808594 693.75 205.722656 C 695.332031 197.578125 690.058594 189.667969 681.972656 188.027344 C 681.09375 187.910156 680.273438 187.792969 679.394531 187.734375 Z M 521.074219 187.792969 C 520.078125 187.792969 519.082031 187.851562 518.085938 188.027344 C 509.941406 189.667969 504.667969 197.578125 506.308594 205.722656 C 507.070312 209.589844 509.355469 213.046875 512.695312 215.273438 C 515.976562 217.441406 520.019531 218.261719 523.945312 217.5 C 532.089844 215.859375 537.363281 208.007812 535.722656 199.863281 C 534.316406 192.890625 528.222656 187.851562 521.074219 187.792969 Z M 445.136719 210.820312 C 443.144531 210.820312 441.152344 211.171875 439.277344 211.933594 C 431.601562 215.15625 427.96875 223.886719 431.191406 231.5625 C 434.355469 239.238281 443.085938 242.871094 450.761719 239.707031 C 458.4375 236.484375 462.070312 227.753906 458.90625 220.078125 C 456.5625 214.511719 451.171875 210.878906 445.136719 210.820312 Z M 755.332031 210.820312 C 749.121094 210.703125 743.496094 214.335938 741.09375 220.078125 C 737.929688 227.753906 741.5625 236.484375 749.238281 239.707031 C 756.914062 242.871094 765.644531 239.238281 768.808594 231.5625 C 772.03125 223.886719 768.398438 215.15625 760.722656 211.933594 C 759.023438 211.230469 757.148438 210.878906 755.332031 210.820312 Z M 375.175781 248.203125 C 372.128906 248.203125 369.140625 249.082031 366.621094 250.78125 C 359.765625 255.351562 357.890625 264.667969 362.519531 271.582031 C 367.089844 278.4375 376.40625 280.3125 383.320312 275.683594 C 390.234375 271.113281 392.050781 261.796875 387.480469 254.941406 C 384.726562 250.78125 380.097656 248.261719 375.175781 248.203125 Z M 825.234375 248.203125 C 820.136719 248.144531 815.332031 250.664062 812.519531 254.941406 C 807.890625 261.796875 809.765625 271.113281 816.621094 275.683594 C 823.535156 280.3125 832.851562 278.4375 837.421875 271.582031 C 839.648438 268.300781 840.46875 264.199219 839.707031 260.332031 C 838.945312 256.40625 836.660156 252.949219 833.320312 250.78125 C 830.917969 249.140625 828.164062 248.261719 825.234375 248.203125 Z M 313.828125 298.59375 C 309.785156 298.59375 305.859375 300.175781 303.046875 303.046875 C 297.1875 308.847656 297.1875 318.398438 303.046875 324.199219 C 308.847656 330.058594 318.398438 330.058594 324.199219 324.199219 C 330.058594 318.398438 330.058594 308.847656 324.199219 303.046875 C 321.445312 300.234375 317.753906 298.652344 313.828125 298.59375 Z M 886.582031 298.59375 C 882.539062 298.59375 878.613281 300.175781 875.800781 303.046875 C 869.941406 308.847656 869.941406 318.398438 875.800781 324.199219 C 881.601562 330.058594 891.152344 330.058594 896.953125 324.199219 C 902.8125 318.398438 902.8125 308.847656 896.953125 303.046875 C 894.199219 300.234375 890.507812 298.652344 886.582031 298.59375 Z M 936.914062 360 C 933.867188 359.941406 930.9375 360.820312 928.417969 362.519531 C 921.5625 367.089844 919.6875 376.40625 924.316406 383.261719 C 928.886719 390.175781 938.203125 392.050781 945.058594 387.421875 C 951.972656 382.792969 953.847656 373.535156 949.21875 366.621094 C 946.464844 362.519531 941.835938 360 936.914062 360 Z M 263.496094 360 C 258.398438 359.882812 253.59375 362.402344 250.78125 366.621094 C 246.210938 373.535156 248.027344 382.851562 254.941406 387.421875 C 261.855469 392.050781 271.113281 390.175781 275.742188 383.320312 C 280.3125 376.40625 278.496094 367.089844 271.582031 362.519531 C 269.179688 360.9375 266.425781 360.058594 263.496094 360 Z M 974.296875 430.019531 C 972.304688 429.960938 970.3125 430.371094 968.4375 431.132812 C 960.761719 434.296875 957.128906 443.085938 960.292969 450.703125 C 963.515625 458.378906 972.246094 462.011719 979.921875 458.847656 C 987.597656 455.683594 991.230469 446.894531 988.066406 439.21875 C 985.722656 433.710938 980.332031 430.019531 974.296875 430.019531 Z M 226.171875 430.019531 C 219.960938 429.902344 214.335938 433.535156 211.992188 439.277344 C 208.828125 446.953125 212.460938 455.683594 220.078125 458.90625 C 227.753906 462.070312 236.542969 458.4375 239.707031 450.761719 C 242.871094 443.085938 239.238281 434.355469 231.5625 431.191406 C 229.863281 430.429688 228.046875 430.078125 226.171875 430.019531 Z M 997.265625 506.015625 C 996.269531 505.957031 995.273438 506.074219 994.277344 506.25 C 986.191406 507.890625 980.917969 515.800781 982.5 523.886719 C 984.140625 532.03125 992.050781 537.304688 1000.136719 535.722656 C 1008.28125 534.082031 1013.554688 526.171875 1011.972656 518.027344 C 1010.566406 511.054688 1004.414062 506.015625 997.265625 506.015625 Z M 203.203125 506.015625 C 195.878906 505.839844 189.550781 510.878906 188.085938 518.027344 C 187.324219 521.953125 188.085938 526.054688 190.3125 529.335938 C 192.539062 532.675781 195.996094 534.960938 199.921875 535.722656 C 203.789062 536.484375 207.832031 535.664062 211.171875 533.496094 C 214.453125 531.269531 216.738281 527.8125 217.5 523.886719 C 219.140625 515.800781 213.867188 507.890625 205.78125 506.25 C 204.902344 506.132812 204.082031 506.015625 203.203125 506.015625 Z M 195 585 C 186.738281 585 180 591.738281 180 600 C 180 608.261719 186.738281 615 195 615 C 203.261719 615 210 608.261719 210 600 C 210 591.738281 203.261719 585 195 585 Z M 1005 585 C 996.738281 585 990 591.738281 990 600 C 990 608.261719 996.738281 615 1005 615 C 1013.261719 615 1020 608.261719 1020 600 C 1020 591.738281 1013.261719 585 1005 585 Z M 202.851562 663.984375 C 201.855469 663.984375 200.859375 664.101562 199.863281 664.277344 C 191.71875 665.917969 186.445312 673.828125 188.085938 681.972656 C 189.726562 690.058594 197.578125 695.332031 205.722656 693.75 C 213.867188 692.109375 219.140625 684.199219 217.5 676.113281 C 216.09375 669.082031 210 664.042969 202.851562 663.984375 Z M 997.617188 663.984375 C 990.292969 663.808594 983.964844 668.90625 982.5 676.113281 C 980.917969 684.199219 986.191406 692.109375 994.277344 693.75 C 1002.421875 695.332031 1010.332031 690.058594 1011.972656 681.972656 C 1013.554688 673.828125 1008.28125 665.917969 1000.136719 664.277344 C 999.316406 664.160156 998.496094 664.042969 997.617188 663.984375 Z M 974.53125 739.921875 C 968.320312 739.804688 962.695312 743.496094 960.292969 749.238281 C 957.128906 756.855469 960.761719 765.644531 968.4375 768.808594 C 976.113281 771.972656 984.84375 768.339844 988.066406 760.722656 C 991.230469 753.046875 987.597656 744.257812 979.921875 741.09375 C 978.222656 740.390625 976.347656 739.980469 974.53125 739.921875 Z M 225.9375 739.980469 C 223.945312 739.980469 221.953125 740.332031 220.078125 741.09375 C 216.445312 742.617188 213.515625 745.546875 211.992188 749.238281 C 210.46875 752.929688 210.46875 757.03125 211.933594 760.722656 C 215.15625 768.398438 223.886719 772.03125 231.5625 768.808594 C 235.253906 767.34375 238.183594 764.414062 239.707031 760.722656 C 241.230469 757.03125 241.230469 752.929688 239.707031 749.238281 C 237.421875 743.671875 231.972656 740.039062 225.9375 739.980469 Z M 937.03125 810 C 931.933594 809.882812 927.128906 812.402344 924.316406 816.621094 C 919.6875 823.535156 921.5625 832.792969 928.417969 837.421875 C 931.699219 839.648438 935.800781 840.46875 939.667969 839.648438 C 943.59375 838.886719 947.050781 836.601562 949.21875 833.261719 C 953.847656 826.40625 951.972656 817.089844 945.058594 812.519531 C 942.714844 810.878906 939.902344 810 937.03125 810 Z M 263.4375 810 C 260.390625 809.941406 257.460938 810.820312 254.941406 812.519531 C 248.085938 817.148438 246.210938 826.40625 250.78125 833.320312 C 255.410156 840.175781 264.726562 842.050781 271.640625 837.421875 C 278.496094 832.851562 280.371094 823.535156 275.742188 816.621094 C 272.988281 812.519531 268.359375 810.058594 263.4375 810 Z M 313.828125 871.40625 C 309.785156 871.347656 305.859375 872.929688 303.046875 875.800781 C 297.1875 881.601562 297.1875 891.152344 303.046875 896.953125 C 308.847656 902.8125 318.398438 902.8125 324.199219 896.953125 C 330.058594 891.152344 330.058594 881.601562 324.199219 875.800781 C 321.445312 872.988281 317.753906 871.40625 313.828125 871.40625 Z M 886.582031 871.40625 C 882.539062 871.347656 878.613281 872.929688 875.800781 875.800781 C 869.941406 881.601562 869.941406 891.152344 875.800781 896.953125 C 881.601562 902.8125 891.152344 902.8125 896.953125 896.953125 C 902.8125 891.152344 902.8125 881.601562 896.953125 875.800781 C 894.199219 872.988281 890.507812 871.40625 886.582031 871.40625 Z M 375.292969 921.738281 C 370.195312 921.621094 365.390625 924.140625 362.578125 928.359375 C 357.949219 935.273438 359.824219 944.589844 366.738281 949.21875 C 373.59375 953.789062 382.910156 951.914062 387.480469 945.058594 C 392.109375 938.144531 390.234375 928.886719 383.378906 924.257812 C 380.976562 922.675781 378.164062 921.738281 375.292969 921.738281 Z M 825.175781 921.738281 C 822.128906 921.679688 819.199219 922.558594 816.679688 924.199219 C 813.339844 926.425781 811.054688 929.882812 810.292969 933.808594 C 809.53125 937.675781 810.351562 941.777344 812.578125 945.058594 C 817.148438 951.914062 826.464844 953.789062 833.378906 949.21875 C 840.234375 944.589844 842.109375 935.273438 837.480469 928.359375 C 834.785156 924.257812 830.15625 921.738281 825.175781 921.738281 Z M 445.371094 959.121094 C 439.160156 959.003906 433.535156 962.695312 431.191406 968.4375 C 428.027344 976.054688 431.660156 984.84375 439.277344 988.007812 C 446.953125 991.171875 455.742188 987.539062 458.90625 979.921875 C 462.070312 972.246094 458.4375 963.457031 450.761719 960.292969 C 449.0625 959.589844 447.246094 959.179688 445.371094 959.121094 Z M 755.097656 959.121094 C 753.105469 959.121094 751.113281 959.53125 749.296875 960.292969 C 745.605469 961.816406 742.675781 964.746094 741.152344 968.378906 C 739.628906 972.070312 739.628906 976.230469 741.09375 979.921875 C 744.316406 987.539062 753.046875 991.171875 760.722656 988.007812 C 764.414062 986.484375 767.34375 983.554688 768.867188 979.921875 C 770.390625 976.230469 770.390625 972.070312 768.867188 968.4375 C 766.582031 962.8125 761.132812 959.179688 755.097656 959.121094 Z M 521.425781 982.207031 C 514.101562 982.03125 507.714844 987.128906 506.308594 994.277344 C 504.667969 1002.421875 509.941406 1010.273438 518.085938 1011.914062 C 526.230469 1013.554688 534.082031 1008.28125 535.722656 1000.136719 C 537.363281 991.992188 532.089844 984.140625 523.945312 982.5 C 523.125 982.324219 522.246094 982.207031 521.425781 982.207031 Z M 679.042969 982.265625 C 678.046875 982.207031 677.050781 982.324219 676.113281 982.5 C 667.96875 984.140625 662.695312 991.992188 664.277344 1000.136719 C 665.097656 1004.0625 667.382812 1007.460938 670.664062 1009.6875 C 674.003906 1011.914062 678.046875 1012.734375 681.972656 1011.972656 C 685.839844 1011.152344 689.296875 1008.867188 691.523438 1005.585938 C 693.691406 1002.246094 694.511719 998.203125 693.75 994.277344 C 692.34375 987.304688 686.191406 982.265625 679.042969 982.265625 Z M 600 990 C 591.738281 990 585 996.738281 585 1005 C 585 1013.261719 591.738281 1020 600 1020 C 608.261719 1020 615 1013.261719 615 1005 C 615 996.738281 608.261719 990 600 990 Z M 600 990 "/>
<path style=" stroke:none;fill-rule:nonzero;fill:rgb(100%,100%,100%);fill-opacity:1;" d="M 303.871094 532.5 L 327.734375 532.5 L 328.570312 550.988281 C 339.824219 536.847656 354.546875 529.777344 372.734375 529.777344 C 403.894531 529.777344 419.617188 547.359375 419.894531 582.523438 L 419.894531 679.917969 L 394.640625 679.917969 L 394.640625 582.382812 C 394.546875 571.734375 392.128906 563.871094 387.382812 558.800781 C 382.59375 553.6875 375.152344 551.128906 365.058594 551.128906 C 356.917969 551.128906 349.753906 553.3125 343.570312 557.6875 C 337.382812 562.058594 332.570312 567.777344 329.128906 574.847656 L 329.128906 679.917969 L 303.871094 679.917969 Z M 575.335938 679.917969 L 548.894531 679.917969 C 547.453125 677.035156 546.265625 671.847656 545.335938 664.359375 C 533.617188 676.546875 519.640625 682.640625 503.40625 682.640625 C 488.847656 682.640625 476.917969 678.523438 467.617188 670.289062 C 458.3125 662.105469 453.664062 651.6875 453.664062 639.035156 C 453.664062 623.6875 459.5 611.753906 471.175781 603.246094 C 482.847656 594.777344 499.265625 590.546875 520.429688 590.546875 L 544.988281 590.546875 L 544.988281 578.964844 C 544.988281 570.128906 542.335938 563.105469 537.035156 557.894531 C 531.777344 552.6875 524.011719 550.082031 513.734375 550.082031 C 504.753906 550.082031 497.222656 552.335938 491.128906 556.847656 C 485.035156 561.40625 481.988281 566.917969 481.988281 573.382812 L 456.664062 573.382812 C 456.664062 565.988281 459.265625 558.871094 464.476562 552.035156 C 469.734375 545.199219 476.824219 539.777344 485.753906 535.777344 C 494.6875 531.777344 504.523438 529.777344 515.265625 529.777344 C 532.246094 529.777344 545.546875 534.011719 555.175781 542.476562 C 564.800781 550.988281 569.800781 562.6875 570.175781 577.570312 L 570.175781 645.453125 C 570.175781 658.988281 571.894531 669.753906 575.335938 677.753906 Z M 507.105469 660.734375 C 514.964844 660.734375 522.453125 658.6875 529.570312 654.59375 C 536.640625 650.5 541.777344 645.175781 544.988281 638.617188 L 544.988281 608.40625 L 525.175781 608.40625 C 494.289062 608.40625 478.847656 617.429688 478.847656 635.476562 C 478.847656 643.382812 481.5 649.570312 486.800781 654.035156 C 492.058594 658.5 498.824219 660.734375 507.105469 660.734375 Z M 610.5 532.5 L 635.6875 532.5 L 635.6875 696.941406 C 635.6875 725.3125 622.847656 739.5 597.175781 739.5 C 591.59375 739.5 586.453125 738.664062 581.753906 736.988281 L 581.753906 716.824219 C 584.640625 717.570312 588.453125 717.941406 593.199219 717.941406 C 598.824219 717.941406 603.105469 716.40625 606.035156 713.335938 C 609.011719 710.3125 610.5 705.035156 610.5 697.5 Z M 607.917969 493.359375 C 607.917969 489.359375 609.175781 485.941406 611.6875 483.105469 C 614.152344 480.222656 617.800781 478.777344 622.640625 478.777344 C 627.523438 478.777344 631.246094 480.199219 633.800781 483.035156 C 636.359375 485.824219 637.640625 489.265625 637.640625 493.359375 C 637.640625 497.453125 636.359375 500.871094 633.800781 503.617188 C 631.246094 506.3125 627.523438 507.664062 622.640625 507.664062 C 617.710938 507.664062 614.035156 506.3125 611.617188 503.617188 C 609.152344 500.871094 607.917969 497.453125 607.917969 493.359375 Z M 675.382812 599.40625 C 675.382812 578.847656 678.128906 559.128906 683.617188 540.246094 C 689.105469 521.359375 697.289062 504.199219 708.175781 488.753906 C 719.105469 473.3125 730.429688 462.40625 742.152344 456.035156 L 747.3125 472.640625 C 734.058594 482.824219 723.175781 498.359375 714.664062 519.246094 C 706.199219 540.128906 701.546875 563.523438 700.710938 589.429688 L 700.570312 601.011719 C 700.570312 636.082031 706.964844 666.523438 719.753906 692.335938 C 727.476562 707.777344 736.664062 719.847656 747.3125 728.546875 L 742.152344 743.964844 C 730.058594 737.222656 718.523438 725.964844 707.546875 710.199219 C 686.105469 679.3125 675.382812 642.382812 675.382812 599.40625 Z M 829.917969 600.734375 C 829.917969 621.011719 827.246094 640.429688 821.894531 658.988281 C 816.59375 677.59375 808.476562 694.753906 797.546875 710.476562 C 786.570312 726.152344 775.082031 737.3125 763.082031 743.964844 L 757.777344 728.546875 C 771.777344 717.847656 783.035156 701.199219 791.546875 678.59375 C 800.011719 656.035156 804.335938 630.988281 804.523438 603.453125 L 804.523438 599.128906 C 804.523438 580.058594 802.523438 562.3125 798.523438 545.894531 C 794.523438 529.523438 788.964844 514.824219 781.847656 501.800781 C 774.734375 488.824219 766.710938 478.710938 757.777344 471.453125 L 763.082031 456.035156 C 775.082031 462.6875 786.523438 473.777344 797.40625 489.3125 C 808.246094 504.847656 816.359375 521.964844 821.753906 540.664062 C 827.199219 559.359375 829.917969 579.382812 829.917969 600.734375 Z M 864.800781 546.382812 C 864.800781 542.011719 866.082031 538.382812 868.640625 535.5 C 871.246094 532.570312 875.128906 531.105469 880.289062 531.105469 C 885.453125 531.105469 889.382812 532.570312 892.082031 535.5 C 894.777344 538.382812 896.128906 542.011719 896.128906 546.382812 C 896.128906 550.570312 894.777344 554.058594 892.082031 556.847656 C 889.382812 559.6875 885.453125 561.105469 880.289062 561.105469 C 875.128906 561.105469 871.246094 559.6875 868.640625 556.847656 C 866.082031 554.058594 864.800781 550.570312 864.800781 546.382812 Z M 869.546875 719.40625 L 855.246094 709.640625 C 863.753906 697.734375 868.199219 685.453125 868.570312 672.800781 L 868.570312 650.058594 L 893.265625 650.058594 L 893.265625 669.800781 C 893.265625 679.011719 891.011719 688.199219 886.5 697.359375 C 881.988281 706.523438 876.335938 713.871094 869.546875 719.40625 Z M 869.546875 719.40625 "/>
</g>
</svg>
