<?xml version="1.0" encoding="UTF-8"?>
<svg xmlns="http://www.w3.org/2000/svg" xmlns:xlink="http://www.w3.org/1999/xlink" viewBox="0 0 480 480" width="480px" height="480px">
<g id="surface15532810">
<path style=" stroke:none;fill-rule:nonzero;fill:rgb(40.000001%,40.000001%,40.000001%);fill-opacity:1;" d="M 439.820312 236.351562 C 440.511719 193.738281 430.910156 143.070312 410.910156 83.621094 L 395.230469 37 L 373.929688 81.328125 C 372.789062 83.699219 371.488281 86.019531 370.128906 88.308594 C 335.140625 58.269531 289.738281 40 240 40 C 129.539062 40 40 129.539062 40 240 C 40 350.460938 129.539062 440 240 440 C 350.460938 440 440 350.460938 440 240 C 440 238.769531 439.839844 237.578125 439.820312 236.351562 Z M 439.820312 236.351562 "/>
<path style=" stroke:none;fill-rule:nonzero;fill:rgb(100%,100%,100%);fill-opacity:1;" d="M 393.851562 325.578125 C 362.621094 368.601562 307.339844 370.910156 255.308594 370 L 168.121094 370 C 212.398438 354.070312 238.75 350.28125 265.660156 336 C 316.339844 309.351562 366.441406 251.039062 376.871094 190.378906 C 357.570312 248.738281 299.078125 298.878906 245.78125 319.269531 C 209.261719 333.199219 143.300781 346.71875 143.300781 346.71875 L 140.628906 345.269531 C 95.730469 322.679688 94.371094 222.140625 176 189.679688 C 211.738281 175.449219 245.929688 183.269531 284.539062 173.75 C 325.761719 163.628906 373.441406 131.671875 392.839844 90 C 414.558594 156.671875 440.699219 261.058594 393.851562 325.578125 Z M 156.679688 384.449219 C 153.859375 387.949219 149.550781 390 145.050781 390 C 136.820312 390 130.101562 383.230469 130.101562 375 C 130.101562 366.769531 136.871094 360 145.050781 360 C 148.460938 360 151.820312 361.179688 154.460938 363.359375 C 160.859375 368.550781 161.859375 378.050781 156.679688 384.449219 Z M 156.679688 384.449219 "/>
</g>
</svg>
